# xmcd
#
# Track frame offsets: 
#        150
#        18041
#        34766
#        53821
#        63136
#        77536
#        96069
#        113771
#        126290
#        140284
#        150941
#        170224
#        183195
#        207121
#
# Disc length: 3033 seconds
#
# Revision: 0
# Processed by: cddbd v1.5.2PL0 Copyright (c) Steve Scherf et al.
# Submitted via: ExactAudioCopyFreeDBPlugin 1.0
#
DISCID=a60bd70e
DTITLE=Malina Brothers - Rychlejší koně
DYEAR=2013
DGENRE=
TTITLE0=Rychlejší koně
TTITLE1=A život běží dál
TTITLE2=Irish Banjo Medley
TTITLE3=Use to Be
TTITLE4=Jsem volnej jak pták
TTITLE5=Flowers of Edinburgh
TTITLE6=When You Come Back Down
TTITLE7=Návrat
TTITLE8=Padá déšť
TTITLE9=Shennandoah Valley Breakdown
TTITLE10=Nech svět ať se točí dál
TTITLE11=Love Please Come Home
TTITLE12=Skočná
TTITLE13=Lady Yesterday
EXTD=
EXTT0=
EXTT1=
EXTT2=
EXTT3=
EXTT4=
EXTT5=
EXTT6=
EXTT7=
EXTT8=
EXTT9=
EXTT10=
EXTT11=
EXTT12=
EXTT13=
PLAYORDER=
